<?xml version="1.0" encoding="iso-8859-1"?>
<!-- Generator: Adobe Illustrator 19.0.0, SVG Export Plug-In . SVG Version: 6.00 Build 0)  -->
<svg version="1.1" id="Layer_1" xmlns="http://www.w3.org/2000/svg" xmlns:xlink="http://www.w3.org/1999/xlink" x="0px" y="0px"
	 viewBox="0 0 512 512" style="enable-background:new 0 0 512 512;" xml:space="preserve">
<path style="fill:#FEE12D;" d="M375.204,159.036c1.128,2.746-0.372,4.993-3.336,4.993H242.729c-2.964,0-4.447-2.24-3.294-4.975
	l15.411-36.582c1.154-2.736,4.521-4.975,7.486-4.975h90.4c2.964,0,6.313,2.245,7.443,4.991L375.204,159.036z"/>
<path style="opacity:0.1;enable-background:new    ;" d="M272.917,159.053l15.411-36.582c1.151-2.736,4.52-4.975,7.485-4.975
	h-33.481c-2.964,0-6.333,2.239-7.486,4.975l-15.411,36.582c-1.154,2.735,0.329,4.975,3.294,4.975h33.481
	C273.245,164.028,271.763,161.789,272.917,159.053z"/>
<path style="fill:#EAA824;" d="M142.721,298.688c-8.165,0-15.615-4.655-19.202-11.999c-3.586-7.341-2.681-16.089,2.329-22.541
	l74.808-96.311c4.049-5.214,10.276-8.264,16.871-8.264h170.989c8.447,0,16.102,4.982,19.531,12.71l42.748,96.311
	c2.937,6.62,2.332,14.282-1.61,20.356c-3.941,6.074-10.686,9.737-17.921,9.737H142.721z"/>
<path style="fill:#58595B;" d="M429.075,272.354c1.204,2.714-0.236,4.933-3.201,4.933H148.109c-2.964,0-3.9-1.917-2.079-4.261
	l68.189-87.787c1.819-2.344,5.734-4.261,8.698-4.261h160.211c2.964,0,6.375,2.22,7.579,4.934L429.075,272.354z"/>
<path style="fill:#414042;" d="M316.202,274.803v-93.826h-15.673v93.826c0,0.869,0.147,1.702,0.409,2.484h14.857
	C316.056,276.505,316.202,275.672,316.202,274.803z"/>
<path style="opacity:0.1;enable-background:new    ;" d="M187.966,274.504l69.739-89.784c1.241-1.597,3.431-2.985,5.653-3.744
	h-40.441c-2.963,0-6.879,1.917-8.698,4.261l-68.189,87.787c-1.82,2.344-0.885,4.261,2.079,4.261h38.975
	C186.874,276.53,187.145,275.559,187.966,274.504z"/>
<path style="fill:#FEBE2D;" d="M503.934,327.749c0,5.94-4.851,10.799-10.779,10.799H18.844c-5.929,0-9.214-4.6-7.303-10.222
	l18.697-54.984c1.911-5.623,8.327-10.222,14.256-10.222h448.662c5.929,0,10.779,4.86,10.779,10.799v53.83H503.934z"/>
<path style="opacity:0.1;enable-background:new    ;" d="M45.276,328.325l18.697-54.984c1.912-5.623,8.327-10.222,14.256-10.222
	H44.493c-5.929,0-12.344,4.6-14.256,10.222L11.54,328.325c-1.911,5.623,1.375,10.222,7.303,10.222h33.737
	C46.651,338.548,43.365,333.947,45.276,328.325z"/>
<path style="fill:#414042;" d="M356.119,297.037h-7.869v-7.883c0-2.406-1.969-4.376-4.373-4.376h-7.868
	c-2.405,0-4.373,1.971-4.373,4.376v7.883c0,0.028,0.007,0.06,0.009,0.088c-0.285-0.06-0.583-0.088-0.885-0.088h-7.869v-7.883
	c0-2.406-1.968-4.376-4.372-4.376h-7.869c-2.404,0-4.372,1.971-4.372,4.376v7.883c0,0.028,0.008,0.06,0.009,0.088
	c-0.284-0.06-0.581-0.088-0.884-0.088h-7.868v-7.883c0-2.406-1.969-4.376-4.374-4.376h-7.869c-2.404,0-4.372,1.971-4.372,4.376
	v7.883c0,0.028,0.008,0.06,0.01,0.088c-0.286-0.06-0.582-0.088-0.885-0.088h-7.869v-7.883c0-2.406-1.966-4.376-4.372-4.376h-7.869
	c-2.405,0-4.373,1.971-4.373,4.376v7.883c0,0.028,0.008,0.06,0.009,0.088c-0.285-0.06-0.582-0.088-0.885-0.088h-7.868v-7.883
	c0-2.406-1.968-4.376-4.372-4.376h-7.869c-2.404,0-4.372,1.971-4.372,4.376v7.883c0,0.028,0.008,0.06,0.008,0.088
	c-0.285-0.06-0.581-0.088-0.883-0.088h-7.869v-7.883c0-2.406-1.968-4.376-4.374-4.376h-7.868c-2.405,0-4.372,1.971-4.372,4.376
	v7.883c0,0.028,0.009,0.06,0.009,0.088c-0.285-0.06-0.582-0.088-0.884-0.088h-7.869v-7.883c0-2.406-1.968-4.376-4.372-4.376h-7.869
	c-2.406,0-4.374,1.971-4.374,4.376v7.883c0,2.406,1.968,4.377,4.374,4.377h7.869v7.88c0,2.408,1.968,4.378,4.372,4.378h7.869
	c2.404,0,4.372-1.971,4.372-4.378v-7.88c0-0.031-0.008-0.062-0.009-0.091c0.285,0.06,0.581,0.091,0.884,0.091h7.868v7.88
	c0,2.408,1.968,4.378,4.374,4.378h7.869c2.404,0,4.372-1.971,4.372-4.378v-7.88c0-0.031-0.007-0.062-0.01-0.091
	c0.286,0.06,0.583,0.091,0.885,0.091h7.869v7.88c0,2.408,1.968,4.378,4.372,4.378h7.868c2.406,0,4.374-1.971,4.374-4.378v-7.88
	c0-0.031-0.009-0.062-0.01-0.091c0.287,0.06,0.583,0.091,0.885,0.091h7.869v7.88c0,2.408,1.968,4.378,4.372,4.378h7.869
	c2.404,0,4.372-1.971,4.372-4.378v-7.88c0-0.031-0.008-0.062-0.009-0.091c0.285,0.06,0.581,0.091,0.884,0.091h7.869v7.88
	c0,2.408,1.97,4.378,4.374,4.378h7.868c2.405,0,4.372-1.971,4.372-4.378v-7.88c0-0.031-0.007-0.062-0.008-0.091
	c0.284,0.06,0.581,0.091,0.883,0.091h7.869v7.88c0,2.408,1.968,4.378,4.372,4.378h7.869c2.404,0,4.374-1.971,4.374-4.378v-7.88
	c0-0.031-0.008-0.062-0.01-0.091c0.286,0.06,0.582,0.091,0.885,0.091h7.868v7.88c0,2.408,1.968,4.378,4.373,4.378h7.869
	c2.404,0,4.371-1.971,4.371-4.378v-7.88C360.49,299.007,358.523,297.037,356.119,297.037z"/>
<path style="fill:#EAA824;" d="M512,347.889c0,2.97-2.425,5.399-5.39,5.399H5.39c-2.964,0-5.39-2.429-5.39-5.399v-16.003
	c0-2.97,2.425-5.399,5.39-5.399H506.61c2.964,0,5.39,2.429,5.39,5.399L512,347.889L512,347.889z"/>
<path style="opacity:0.1;enable-background:new    ;" d="M32.876,347.889v-16.003c0-2.97,2.425-5.399,5.39-5.399H5.39
	c-2.964,0-5.39,2.429-5.39,5.399v16.003c0,2.97,2.425,5.399,5.39,5.399h32.876C35.301,353.288,32.876,350.859,32.876,347.889z"/>
<ellipse style="fill:#414042;" cx="132.995" cy="350.325" rx="44.063" ry="44.178"/>
<ellipse style="fill:#58595B;" cx="132.995" cy="350.325" rx="17.795" ry="17.847"/>
<ellipse style="fill:#414042;" cx="413.497" cy="350.325" rx="44.063" ry="44.178"/>
<ellipse style="fill:#58595B;" cx="413.497" cy="350.325" rx="17.795" ry="17.847"/>
<g>
	<path style="fill:#FEE12D;" d="M503.934,284.207h-20.26c-2.964,0-5.39,2.429-5.39,5.4v21.302c0,2.971,2.425,5.4,5.39,5.4h20.26
		V284.207z"/>
	<path style="fill:#FEE12D;" d="M58.406,282.279H27.198l-7.089,20.849h29.244c2.963,0,6.356-2.229,7.539-4.951l4.753-10.947
		C62.828,284.508,61.369,282.279,58.406,282.279z"/>
</g>
<g>
</g>
<g>
</g>
<g>
</g>
<g>
</g>
<g>
</g>
<g>
</g>
<g>
</g>
<g>
</g>
<g>
</g>
<g>
</g>
<g>
</g>
<g>
</g>
<g>
</g>
<g>
</g>
<g>
</g>
</svg>
