<?xml version="1.0" encoding="UTF-8"?>
<svg id="Layer_1" xmlns="http://www.w3.org/2000/svg" viewBox="0 0 2457.51 2457.51">
  <defs>
    <style>
      .cls-1 {
        fill: #febe2d;
      }

      .cls-2 {
        isolation: isolate;
        opacity: .1;
      }

      .cls-3 {
        fill: #eaa824;
      }

      .cls-4 {
        fill: #58595b;
      }

      .cls-5 {
        fill: #414042;
      }

      .cls-6 {
        fill: #fee12d;
      }
    </style>
  </defs>
  <path class="cls-6" d="M1800.91,1209.81c5.41,13.18-1.79,23.97-16.01,23.97h-619.84c-14.23,0-21.34-10.75-15.81-23.88l73.97-175.59c5.54-13.13,21.7-23.88,35.93-23.88h433.9c14.23,0,30.3,10.78,35.73,23.96l72.14,175.42Z"/>
  <path class="cls-2" d="M1309.95,1209.89l73.97-175.59c5.52-13.13,21.7-23.88,35.93-23.88h-160.7c-14.23,0-30.4,10.75-35.93,23.88l-73.97,175.59c-5.54,13.13,1.58,23.88,15.81,23.88h160.7c-14.23,0-21.34-10.75-15.81-23.88Z"/>
  <path class="cls-3" d="M685.04,1880.12c-39.19,0-74.95-22.34-92.17-57.59-17.21-35.24-12.87-77.22,11.18-108.19l359.07-462.28c19.43-25.03,49.32-39.67,80.98-39.67h820.72c40.54,0,77.29,23.91,93.75,61.01l205.18,462.28c14.1,31.77,11.19,68.55-7.73,97.71-18.92,29.15-51.29,46.74-86.02,46.74H685.04Z"/>
  <path class="cls-4" d="M2059.49,1753.72c5.78,13.03-1.13,23.68-15.36,23.68H710.9c-14.23,0-18.72-9.2-9.98-20.45l327.3-421.36c8.73-11.25,27.52-20.45,41.75-20.45h768.98c14.23,0,30.6,10.66,36.38,23.68l184.16,414.91Z"/>
  <path class="cls-5" d="M1517.71,1765.47v-450.35h-75.23v450.35c0,4.17.71,8.17,1.96,11.92h71.31c1.25-3.75,1.95-7.75,1.95-11.92Z"/>
  <path class="cls-2" d="M902.2,1764.04l334.74-430.95c5.96-7.67,16.47-14.33,27.13-17.97h-194.11c-14.22,0-33.02,9.2-41.75,20.45l-327.3,421.36c-8.74,11.25-4.25,20.45,9.98,20.45h187.07c-1.01-3.62.29-8.28,4.23-13.35Z"/>
  <path class="cls-1" d="M2418.8,2019.61c0,28.51-23.28,51.83-51.74,51.83H90.45c-28.46,0-44.23-22.08-35.05-49.06l89.74-263.91c9.17-26.99,39.97-49.06,68.43-49.06h2153.5c28.46,0,51.74,23.33,51.74,51.83v258.37h0Z"/>
  <path class="cls-2" d="M45.28,2273.84l18.7-54.98c1.91-5.62,8.33-10.22,14.26-10.22h-33.74c-5.93,0-12.34,4.6-14.26,10.22l-18.7,54.98c-1.91,5.62,1.38,10.22,7.3,10.22h33.74c-5.93,0-9.22-4.6-7.3-10.22Z"/>
  <path class="cls-5" d="M1709.31,1872.19h-37.77v-37.84c0-11.55-9.45-21-20.99-21h-37.77c-11.54,0-20.99,9.46-20.99,21v37.84c0,.13.03.29.04.42-1.37-.29-2.8-.42-4.25-.42h-37.77v-37.84c0-11.55-9.45-21-20.98-21h-37.77c-11.54,0-20.98,9.46-20.98,21v37.84c0,.13.04.29.04.42-1.36-.29-2.79-.42-4.24-.42h-37.77v-37.84c0-11.55-9.45-21-20.99-21h-37.77c-11.54,0-20.98,9.46-20.98,21v37.84c0,.13.04.29.05.42-1.37-.29-2.79-.42-4.25-.42h-37.77v-37.84c0-11.55-9.44-21-20.98-21h-37.77c-11.54,0-20.99,9.46-20.99,21v37.84c0,.13.04.29.04.42-1.37-.29-2.79-.42-4.25-.42h-37.77v-37.84c0-11.55-9.45-21-20.98-21h-37.77c-11.54,0-20.98,9.46-20.98,21v37.84c0,.13.04.29.04.42-1.37-.29-2.79-.42-4.24-.42h-37.77v-37.84c0-11.55-9.45-21-20.99-21h-37.77c-11.54,0-20.98,9.46-20.98,21v37.84c0,.13.04.29.04.42-1.37-.29-2.79-.42-4.24-.42h-37.77v-37.84c0-11.55-9.45-21-20.98-21h-37.77c-11.55,0-20.99,9.46-20.99,21v37.84c0,11.55,9.45,21.01,20.99,21.01h37.77v37.82c0,11.56,9.45,21.01,20.98,21.01h37.77c11.54,0,20.98-9.46,20.98-21.01v-37.82c0-.15-.04-.3-.04-.44,1.37.29,2.79.44,4.24.44h37.77v37.82c0,11.56,9.45,21.01,20.99,21.01h37.77c11.54,0,20.98-9.46,20.98-21.01v-37.82c0-.15-.03-.3-.05-.44,1.37.29,2.8.44,4.25.44h37.77v37.82c0,11.56,9.45,21.01,20.98,21.01h37.77c11.55,0,20.99-9.46,20.99-21.01v-37.82c0-.15-.04-.3-.05-.44,1.38.29,2.8.44,4.25.44h37.77v37.82c0,11.56,9.45,21.01,20.98,21.01h37.77c11.54,0,20.98-9.46,20.98-21.01v-37.82c0-.15-.04-.3-.04-.44,1.37.29,2.79.44,4.24.44h37.77v37.82c0,11.56,9.46,21.01,20.99,21.01h37.77c11.54,0,20.98-9.46,20.98-21.01v-37.82c0-.15-.03-.3-.04-.44,1.36.29,2.79.44,4.24.44h37.77v37.82c0,11.56,9.45,21.01,20.98,21.01h37.77c11.54,0,20.99-9.46,20.99-21.01v-37.82c0-.15-.04-.3-.05-.44,1.37.29,2.79.44,4.25.44h37.77v37.82c0,11.56,9.45,21.01,20.99,21.01h37.77c11.54,0,20.98-9.46,20.98-21.01v-37.82c0-11.55-9.44-21.01-20.98-21.01Z"/>
  <path class="cls-3" d="M2457.51,2116.27c0,14.26-11.64,25.91-25.87,25.91H25.87c-14.23,0-25.87-11.66-25.87-25.91v-76.81c0-14.26,11.64-25.91,25.87-25.91h2405.77c14.23,0,25.87,11.66,25.87,25.91v76.81h0Z"/>
  <path class="cls-2" d="M32.88,2293.4v-16c0-2.97,2.42-5.4,5.39-5.4H5.39c-2.96,0-5.39,2.43-5.39,5.4v16c0,2.97,2.42,5.4,5.39,5.4h32.88c-2.97,0-5.39-2.43-5.39-5.4Z"/>
  <ellipse class="cls-5" cx="638.35" cy="2127.97" rx="211.49" ry="212.05"/>
  <ellipse class="cls-4" cx="638.35" cy="2127.97" rx="85.41" ry="85.66"/>
  <ellipse class="cls-5" cx="1984.71" cy="2127.97" rx="211.49" ry="212.05"/>
  <ellipse class="cls-4" cx="1984.71" cy="2127.97" rx="85.41" ry="85.66"/>
  <g>
    <path class="cls-6" d="M2418.8,1810.61h-97.24c-14.23,0-25.87,11.66-25.87,25.92v102.25c0,14.26,11.64,25.92,25.87,25.92h97.24v-154.08Z"/>
    <path class="cls-6" d="M280.34,1801.36h-149.79l-34.03,100.07h140.37c14.22,0,30.51-10.7,36.19-23.76l22.81-52.54c5.68-13.07-1.32-23.76-15.55-23.76Z"/>
  </g>
</svg>